# xmcd
#
# Track frame offsets:
# 150
# 11717
# 32340
# 42427
# 58265
# 70062
# 80542
# 103847
# 119942
# 137195
# 153870
# 172287
# 197090
#
# Disc length: 2776 seconds
#
#
# Revision: 0
# Processed by: cddbd v1.5.1PL2 Copyright (c) Steve Scherf et al.
# Submitted via: FreeRIP 2.51 
#
DISCID=be0ad60d
DTITLE=Kristi Johnston Band - That Would Be Fine
DYEAR=2000
DGENRE=Blues
TTITLE0=Train
TTITLE1=Midnight Rambler
TTITLE2=Shake Your Sugar Tree
TTITLE3=If I Ain't Got
TTITLE4=The Moose Is Loose
TTITLE5=Eyesight To The Blind
TTITLE6=That's All Right
TTITLE7=Rock This Morning
TTITLE8=Guilty
TTITLE9=That Would Be Fine
TTITLE10=Outta Love
TTITLE11=We Get By
TTITLE12=Hidden Track
EXTD=
EXTT0=
EXTT1=
EXTT2=
EXTT3=
EXTT4=
EXTT5=
EXTT6=
EXTT7=
EXTT8=
EXTT9=
EXTT10=
EXTT11=
EXTT12=
PLAYORDER=
